<svg xmlns="http://www.w3.org/2000/svg" width="120" height="44" viewBox="0 0 120 44">
  <metadata><?xpacket begin="﻿" id="W5M0MpCehiHzreSzNTczkc9d"?>
<x:xmpmeta xmlns:x="adobe:ns:meta/" x:xmptk="Adobe XMP Core 5.6-c140 79.160451, 2017/05/06-01:08:21        ">
   <rdf:RDF xmlns:rdf="http://www.w3.org/1999/02/22-rdf-syntax-ns#">
      <rdf:Description rdf:about=""/>
   </rdf:RDF>
</x:xmpmeta>
                                                                                                    
                                                                                                    
                                                                                                    
                                                                                                    
                                                                                                    
                                                                                                    
                                                                                                    
                                                                                                    
                                                                                                    
                                                                                                    
                                                                                                    
                                                                                                    
                                                                                                    
                                                                                                    
                                                                                                    
                                                                                                    
                                                                                                    
                                                                                                    
                                                                                                    
                                                                                                    
                           
<?xpacket end="w"?></metadata>
<defs>
    <style>
      .cls-1 {
        fill: #364655;
        fill-rule: evenodd;
      }
    </style>
  </defs>
  <path id="Фигура_2" data-name="Фигура 2" class="cls-1" d="M500.034,93.915l1.906-3.472h0.682v3.472h1.741V84.061H501.9c-2.348,0-3.458.868-3.458,2.961v0.51a2.377,2.377,0,0,0,1.691,2.642l-2.146,3.74h2.045Zm1.868-5.093c-1.262,0-1.628-.447-1.628-1.378V87.112c0-.932.252-1.43,1.6-1.43h0.757v3.14H501.9Zm4.216-4.735v9.828h1.78V90.9h0.669c2.309,0,3.446-.944,3.446-2.974V87.023c0-2.081-1.1-2.936-3.446-2.936h-2.449Zm1.767,5.118V85.7h0.707c1.351,0,1.654.485,1.654,1.417V87.84c0,0.931-.417,1.366-1.679,1.366h-0.682Zm8.647,4.8c2.31,0,3.319-.906,3.319-2.936V86.908c0-2.08-.972-2.936-3.319-2.936s-3.244.855-3.244,2.936v4.161C513.288,93.1,514.222,94,516.532,94Zm0-1.557c-1.262,0-1.5-.536-1.5-1.468V87a1.247,1.247,0,0,1,1.5-1.468c1.35,0,1.578.574,1.578,1.468v3.982C518.11,91.911,517.794,92.447,516.532,92.447Zm9.669-1.57c0,0.97-.316,1.506-1.578,1.506s-1.5-.536-1.5-1.468V87.1c0-.932.24-1.468,1.5-1.468,1.35,0,1.578.536,1.578,1.493h1.742c0-2.183-.972-3.05-3.32-3.05s-3.244.855-3.244,2.936V91c0,2.029.934,2.936,3.244,2.936s3.32-.906,3.32-3.063H526.2Zm9.706-6.816h-5.742l-0.089,5.284c-0.025,1.136.076,2.974-1.451,2.846l-0.063,1.723c2.865,0.293,3.168-1.812,3.231-4.569l0.088-3.676h2.285v8.245h1.741V84.061Zm5.4,0.038h-1.729l-2.688,9.815h1.792l0.505-1.736h2.486l0.493,1.736h1.792Zm-1.691,6.356,0.808-3.637,0.808,3.637h-1.616Zm5.213,3.459h2.638c2.209,0,3.459-.715,3.459-3.063a2.066,2.066,0,0,0-1.616-2.31,1.963,1.963,0,0,0,1.2-1.94c0-1.8-1.212-2.54-2.89-2.54h-2.79v9.853Zm1.73-4.429h0.908c1.275,0,1.59.447,1.59,1.4,0,1.161-.441,1.417-1.565,1.417h-0.933V89.486Zm1.06-3.842a0.953,0.953,0,0,1,1.06,1.059,1.031,1.031,0,0,1-1.048,1.149h-1.06V85.644h1.048Zm12.5,5.233c0,0.97-.316,1.506-1.578,1.506s-1.5-.536-1.5-1.468V87.1c0-.932.24-1.468,1.5-1.468,1.351,0,1.578.536,1.578,1.493h1.742c0-2.183-.972-3.05-3.32-3.05s-3.243.855-3.243,2.936V91c0,2.029.934,2.936,3.243,2.936s3.32-.906,3.32-3.063h-1.742Zm6.829-6.777h-1.729l-2.689,9.815h1.793l0.5-1.736h2.486l0.492,1.736H569.6Zm-1.691,6.356,0.808-3.637,0.808,3.637h-1.616Zm9.2,1.136,1.932-3.957-0.2,2.808v3.472h1.742V84.087H576.25l-1.994,4.352-1.982-4.352H570.6v9.828h1.742V90.443l-0.2-2.808,1.931,3.957h0.391ZM582.789,94c2.31,0,3.319-.906,3.319-2.936V86.908c0-2.08-.972-2.936-3.319-2.936s-3.244.855-3.244,2.936v4.161C579.545,93.1,580.479,94,582.789,94Zm0-1.557c-1.262,0-1.5-.536-1.5-1.468V87a1.247,1.247,0,0,1,1.5-1.468c1.35,0,1.577.574,1.577,1.468v3.982C584.366,91.911,584.051,92.447,582.789,92.447Zm4.986,1.468h1.691l2.866-6.254L592.18,91.4v2.514h1.729v-9.84H592.18l-2.878,6.5,0.2-4.174V84.074h-1.729v9.84Zm3.193-10.453c1.515,0,2.159-.575,2.171-1.978h-1.413a0.613,0.613,0,0,1-.758.663,0.636,0.636,0,0,1-.795-0.663h-1.388C588.8,82.887,589.429,83.462,590.968,83.462Zm11.222,0.6h-5.743l-0.088,5.284c-0.026,1.136.075,2.974-1.452,2.846l-0.063,1.723c2.865,0.293,3.168-1.812,3.231-4.569l0.089-3.676h2.284v8.245h1.742V84.061ZM607.05,94c2.31,0,3.319-.906,3.319-2.936V86.908c0-2.08-.972-2.936-3.319-2.936s-3.244.855-3.244,2.936v4.161C603.806,93.1,604.74,94,607.05,94Zm0-1.557c-1.262,0-1.5-.536-1.5-1.468V87a1.247,1.247,0,0,1,1.5-1.468c1.351,0,1.578.574,1.578,1.468v3.982C608.628,91.911,608.312,92.447,607.05,92.447Zm4.86,1.468h2.638c2.209,0,3.458-.715,3.458-3.063a2.066,2.066,0,0,0-1.615-2.31,1.965,1.965,0,0,0,1.2-1.94c0-1.8-1.212-2.54-2.891-2.54H611.91v9.853Zm1.729-4.429h0.909c1.275,0,1.59.447,1.59,1.4,0,1.161-.441,1.417-1.565,1.417h-0.934V89.486Zm1.06-3.842A0.953,0.953,0,0,1,615.76,86.7a1.031,1.031,0,0,1-1.048,1.149h-1.06V85.644H614.7ZM547.216,61.782s-1.587-.753-3.13-1.409A45.951,45.951,0,0,0,528.639,56.5s-9.242-.337-11.684.991c0,0-2.6,1.95-.153,5.295a14.574,14.574,0,0,1,1.62,2.119,34.1,34.1,0,0,1,2.77,5.992c0.766,2.581,2.177,5.73,6.246,6.278s10.829,1.542,13.14-1.5,5.061-10.874,5.061-10.874,0.148-1.083,2.545-1.06c0.027-.926-0.027-1.049,0-1.964h-0.968ZM538.858,74.9c-1.843,1.407-7.3,1.182-10.887.466s-3.723-2.122-4.623-4.219-2.209-8.777-1.58-9.733c0,0,.437-2.667,8.06-2.439,6.725,0.2,12.927,3.8,13.294,5.636S540.7,73.491,538.858,74.9Zm36.489-18.333A45.182,45.182,0,0,0,559.7,59.509c-2.638.989-1.808,4.332-1.808,4.332s2.292,7.988,4.422,11.158,8.937,2.582,13.031,2.278,6.172-4.993,6.6-5.894,3.672-9.8,4.856-10.478,0.15-2.652.15-2.652C584.592,56.781,575.347,56.565,575.347,56.565ZM579.78,71.5c-1.02,2.041-1.241,3.435-4.86,3.936s-9.083.4-10.841-1.116-4.134-8.713-3.661-10.526,6.872-5.033,13.6-4.832c7.623,0.228,7.905,2.917,7.905,2.917C582.493,62.87,580.8,69.46,579.78,71.5ZM586.9,60.8h0l8.814-4.966-1.526,6.193,2.61-1.363,1.909-7.74L591.387,50l-2.61,1.363,5.858,2.337-8.7,4.153h0m-33.339,3.9,0.091-3.155-2.028-.061-0.092,3.155-2.384.091c-0.02.686,0.02,1.278,0,1.964l2.324,0-0.087,3.017,2.029,0.061,0.087-3.018,3.112,0.093,0.059-2.057Z" transform="translate(-498 -50)"/>
</svg>
